<svg width="712" height="234" viewBox="0 0 712 234" fill="none" xmlns="http://www.w3.org/2000/svg">
<g filter="url(#filter0_d_662_57)">
<path d="M108.384 84.864V56.088C108.384 49.928 108.032 46.056 107.328 44.472C106.389 42.3013 104.013 41.1867 100.2 41.128C99.7893 41.0693 99.5253 41.0107 99.408 40.952C99.2907 40.8933 99.2027 40.6587 99.144 40.248C99.144 39.192 99.144 38.664 99.144 38.664C99.2027 38.136 99.5253 37.872 100.112 37.872C103.515 37.9893 107.68 38.048 112.608 38.048C114.251 38.048 118.533 37.9893 125.456 37.872C125.867 37.872 126.101 37.9893 126.16 38.224C126.277 38.4587 126.336 39.1333 126.336 40.248C126.336 40.7173 126.013 40.9813 125.368 41.04C122.963 41.216 121.232 41.5973 120.176 42.184C118.475 43.1227 117.419 44.9707 117.008 47.728C116.832 48.9013 116.744 57.0267 116.744 72.104C121.144 67.0587 124.165 63.5093 125.808 61.456C128.331 58.4053 131.029 54.856 133.904 50.808C136.544 47.112 137.864 44.7067 137.864 43.592C137.864 41.8907 136.485 41.04 133.728 41.04C133.141 41.04 132.819 40.776 132.76 40.248C132.76 38.664 132.936 37.872 133.288 37.872C134.579 37.872 136.837 37.872 140.064 37.872C143.349 37.9307 145.608 37.96 146.84 37.96C147.309 37.96 148.013 37.9307 148.952 37.872C149.891 37.872 150.595 37.872 151.064 37.872C151.533 37.872 151.768 38.6053 151.768 40.072C151.768 40.6 151.211 40.9227 150.096 41.04C147.925 41.2747 146.195 41.92 144.904 42.976C143.672 44.032 141.824 46.2613 139.36 49.664C135.253 55.3547 131.029 60.928 126.688 66.384C128.507 68.2027 131.235 70.9893 134.872 74.744L143.936 84.424C149.04 89.88 152.501 93.2827 154.32 94.632C156.139 95.9813 158.28 96.6853 160.744 96.744C161.272 96.744 161.565 97.0373 161.624 97.624C161.624 99.208 161.36 100 160.832 100C154.379 99.7067 149.011 99.5893 144.728 99.648C141.971 99.648 138.627 99.7653 134.696 100C134.168 99.9413 133.904 99.0907 133.904 97.448C133.904 97.0373 134.139 96.8027 134.608 96.744C138.363 96.744 140.24 95.8347 140.24 94.016C140.24 92.96 139.067 91.1413 136.72 88.56C134.843 86.5067 132.525 84.0427 129.768 81.168C126.424 77.648 124.312 75.536 123.432 74.832C122.552 74.0693 121.76 73.688 121.056 73.688C120.352 73.688 118.915 75.008 116.744 77.648V85.568C116.744 89.7333 117.184 92.5493 118.064 94.016C119.003 95.4827 121.056 96.392 124.224 96.744C125.573 96.92 126.248 97.2427 126.248 97.712C126.248 98.768 126.219 99.4133 126.16 99.648C126.101 99.8827 125.867 100 125.456 100C123.696 100 121.056 99.9707 117.536 99.912C114.016 99.7947 111.347 99.736 109.528 99.736C107.24 99.736 104.072 99.824 100.024 100C99.4373 100 99.144 99.208 99.144 97.624C99.144 97.096 99.496 96.832 100.2 96.832C102.312 96.832 104.131 96.3627 105.656 95.424C106.888 94.6613 107.68 93.312 108.032 91.376C108.267 90.144 108.384 87.9733 108.384 84.864ZM181.557 45.792C181.029 47.6107 180.824 53.9467 180.941 64.8H214.557C214.557 56.4693 214.528 51.424 214.469 49.664C214.352 46.0853 213.501 43.7093 211.917 42.536C210.803 41.656 208.779 41.1867 205.845 41.128C205.259 41.128 204.936 40.864 204.877 40.336C204.877 39.1627 204.907 38.4587 204.965 38.224C205.024 37.9893 205.259 37.872 205.669 37.872C206.315 37.872 208.661 37.9013 212.709 37.96C216.816 38.0187 219.251 38.048 220.013 38.048C220.541 38.048 222.419 38.0187 225.645 37.96C228.872 37.9013 230.808 37.872 231.453 37.872C231.981 37.872 232.275 38.136 232.333 38.664C232.333 39.7787 232.275 40.4533 232.157 40.688C232.099 40.9227 231.835 41.0693 231.365 41.128C228.784 41.4213 227.171 41.6853 226.525 41.92C225.88 42.096 225.293 42.5947 224.765 43.416C223.768 44.9413 223.181 49.136 223.005 56C223.064 53.4187 223.093 57.76 223.093 69.024C223.093 79.8773 223.181 86.5653 223.357 89.088C223.592 91.8453 224.179 93.752 225.117 94.808C226.115 95.8053 228.256 96.4507 231.541 96.744C231.952 96.8027 232.187 96.9493 232.245 97.184C232.363 97.4187 232.421 98.0933 232.421 99.208C232.363 99.736 231.835 100 230.837 100C230.309 100 228.432 99.9707 225.205 99.912C221.979 99.7947 220.072 99.736 219.485 99.736C218.84 99.736 216.611 99.7947 212.797 99.912C208.984 99.9707 206.696 100 205.933 100C205.405 100 205.112 99.7067 205.053 99.12C205.053 98.0053 205.083 97.3307 205.141 97.096C205.259 96.8027 205.523 96.656 205.933 96.656C208.456 96.5387 210.304 96.128 211.477 95.424C212.885 94.544 213.765 93.0773 214.117 91.024C214.411 89.3227 214.557 81.872 214.557 68.672H180.853C180.853 77.648 180.912 83.7787 181.029 87.064C181.147 90.7013 181.851 93.1947 183.141 94.544C184.256 95.776 186.427 96.5093 189.653 96.744C190.064 96.8027 190.299 96.9493 190.357 97.184C190.475 97.4187 190.533 98.0933 190.533 99.208C190.475 99.7947 189.976 100.059 189.037 100C185.341 99.824 181.088 99.736 176.277 99.736C175.456 99.736 173.168 99.7947 169.413 99.912C165.717 99.9707 163.869 100 163.869 100C163.341 100 163.077 99.7067 163.077 99.12C163.077 97.5947 163.341 96.8027 163.869 96.744C168.093 96.4507 170.645 95.1893 171.525 92.96C172.112 91.4347 172.405 84.4827 172.405 72.104C172.405 55.9707 172.2 47.0827 171.789 45.44C171.379 43.7387 170.469 42.5947 169.061 42.008C168.064 41.5387 166.421 41.2453 164.133 41.128C163.488 41.0693 163.136 40.7467 163.077 40.16C163.077 38.6347 163.312 37.872 163.781 37.872C164.544 37.872 166.891 37.9307 170.821 38.048C174.752 38.1067 177.069 38.136 177.773 38.136C178.419 38.136 180.384 38.1067 183.669 38.048C186.955 37.9307 188.891 37.872 189.477 37.872C189.947 37.872 190.211 37.9893 190.269 38.224C190.387 38.4587 190.445 39.1333 190.445 40.248C190.445 40.776 190.035 41.0693 189.213 41.128C187.101 41.2453 185.547 41.5387 184.549 42.008C183.083 42.712 182.085 43.9733 181.557 45.792ZM268.283 39.456C261.419 39.8667 256.081 43.24 252.267 49.576C248.982 54.9733 247.339 61.3387 247.339 68.672C247.339 78.2933 249.774 85.832 254.643 91.288C258.75 95.9227 263.59 98.24 269.163 98.24C276.145 98.24 281.689 95.072 285.795 88.736C289.433 83.28 291.251 76.8853 291.251 69.552C291.251 59.9893 288.699 52.2453 283.595 46.32C279.371 41.392 274.267 39.104 268.283 39.456ZM289.843 43.152C291.662 42.5653 293.275 41.5093 294.683 39.984C295.505 39.104 295.651 38.5173 295.123 38.224C294.947 38.048 294.654 37.9013 294.243 37.784C293.657 37.5493 293.217 37.2853 292.923 36.992C292.102 36.3467 291.691 35.4667 291.691 34.352C291.691 33.12 292.073 32.0933 292.835 31.272C293.598 30.392 294.595 29.952 295.827 29.952C297.118 29.952 298.145 30.392 298.907 31.272C299.729 32.0933 300.139 33.1493 300.139 34.44C300.139 36.4347 299.171 38.488 297.235 40.6C295.534 42.4187 293.657 43.768 291.603 44.648C298.585 50.7493 302.075 58.9627 302.075 69.288C302.075 78.7333 298.937 86.4773 292.659 92.52C286.441 98.504 278.579 101.496 269.075 101.496C260.451 101.496 253.03 98.768 246.811 93.312C239.83 87.152 236.339 78.9093 236.339 68.584C236.339 59.256 239.478 51.5707 245.755 45.528C252.091 39.4267 259.953 36.376 269.339 36.376C277.025 36.376 283.859 38.6347 289.843 43.152ZM269.339 30.304V33.736C269.339 33.9707 269.075 34.088 268.547 34.088C268.371 34.088 268.283 34 268.283 33.824V27.488C268.342 27.2533 268.43 27.136 268.547 27.136C268.958 27.136 269.193 27.224 269.251 27.4C269.486 28.6907 270.102 29.336 271.099 29.336C273.27 29.336 274.355 27.488 274.355 23.792C274.355 19.392 273.035 17.192 270.395 17.192C269.75 17.192 269.105 17.456 268.459 17.984C267.873 18.512 267.55 19.0987 267.491 19.744V20.8C267.433 21.152 267.051 21.328 266.347 21.328C265.761 21.328 265.467 20.976 265.467 20.272C265.467 19.2747 266.259 18.336 267.843 17.456C269.251 16.6347 270.483 16.224 271.539 16.224C273.534 16.224 275.118 16.928 276.291 18.336C277.465 19.744 278.051 21.4453 278.051 23.44C278.051 25.1413 277.406 26.7253 276.115 28.192C274.825 29.6 273.329 30.304 271.627 30.304C271.158 30.304 270.63 30.2453 270.043 30.128L269.603 30.04C269.427 30.04 269.339 30.128 269.339 30.304ZM314.354 45.088C313.591 42.7413 311.42 41.4507 307.841 41.216C306.844 41.1573 306.258 41.0987 306.082 41.04C305.906 40.9227 305.818 40.6587 305.818 40.248C305.818 38.664 306.052 37.872 306.522 37.872C306.932 37.872 309.279 37.9307 313.562 38.048C317.844 38.1653 320.338 38.224 321.042 38.224C322.274 38.224 324.415 38.1653 327.466 38.048C330.575 37.9307 332.247 37.872 332.482 37.872C332.951 37.872 333.186 38.752 333.186 40.512C333.127 40.9227 332.746 41.1573 332.042 41.216C329.402 41.392 327.642 41.8027 326.762 42.448C325.354 43.504 324.503 45.0587 324.21 47.112C323.975 48.7547 323.858 53.0667 323.858 60.048C323.858 74.8907 323.946 84.1307 324.122 87.768C324.298 91.4053 325.09 93.84 326.498 95.072C327.495 95.8933 329.46 96.4507 332.394 96.744C332.922 96.8027 333.215 97.0667 333.274 97.536C333.274 98.7093 333.215 99.4133 333.098 99.648C333.039 99.8827 332.804 100 332.394 100C331.924 100 329.9 99.9707 326.322 99.912C322.743 99.7947 320.602 99.736 319.898 99.736C316.847 99.7947 312.33 99.8827 306.346 100C305.876 100 305.642 99.1787 305.642 97.536C305.7 97.008 306.023 96.7147 306.61 96.656C309.602 96.48 311.684 95.8933 312.858 94.896C314.09 93.84 314.794 91.7867 314.97 88.736C315.146 85.6267 315.234 78.88 315.234 68.496C315.234 54.6507 314.94 46.848 314.354 45.088ZM380.925 73.864L376.349 71.488C371.655 69.0827 368.311 66.5893 366.317 64.008C363.911 61.016 362.709 57.32 362.709 52.92C362.709 48.6373 364.117 44.9413 366.933 41.832C369.983 38.3707 373.914 36.64 378.725 36.64C381.951 36.64 385.09 37.6373 388.141 39.632C388.551 39.984 388.903 40.16 389.197 40.16C389.666 40.16 390.223 39.5733 390.869 38.4C391.162 37.872 391.837 37.608 392.893 37.608C393.303 37.6667 393.538 38.3707 393.597 39.72L393.949 51.512C393.949 51.864 393.714 52.0693 393.245 52.128C391.719 52.128 390.927 51.8053 390.869 51.16L390.605 49.048C390.253 46.1733 389.079 43.8853 387.085 42.184C385.149 40.4827 382.714 39.632 379.781 39.632C376.202 39.632 373.474 40.776 371.597 43.064C370.071 44.9413 369.309 47.1413 369.309 49.664C369.309 52.832 370.511 55.5307 372.917 57.76C374.266 59.0507 377.786 61.1627 383.477 64.096C388.581 66.736 392.071 68.9653 393.949 70.784C396.941 73.776 398.437 77.5013 398.437 81.96C398.437 86.7707 396.765 91.112 393.421 94.984C389.783 99.1493 385.325 101.232 380.045 101.232C375.762 101.232 371.597 99.7947 367.549 96.92C366.786 96.392 366.258 96.128 365.965 96.128C365.319 96.128 364.645 96.9493 363.941 98.592C363.823 99.12 363.501 99.384 362.973 99.384C361.506 99.384 360.773 99.1493 360.773 98.68C360.773 98.328 360.802 96.2453 360.861 92.432C360.919 88.912 360.949 86.7707 360.949 86.008L360.861 81.872C360.861 81.4613 361.066 81.256 361.477 81.256C362.943 81.256 363.706 81.2853 363.765 81.344C363.882 81.4027 364.058 82.2533 364.293 83.896C364.938 88.648 366.757 92.1973 369.749 94.544C372.154 96.3627 375.058 97.272 378.461 97.272C381.922 97.272 384.767 96.1867 386.997 94.016C389.226 91.7867 390.341 89.2347 390.341 86.36C390.341 83.2507 389.402 80.64 387.525 78.528C386.175 77.0027 383.975 75.448 380.925 73.864ZM411.549 45.088C410.786 42.7413 408.615 41.4507 405.037 41.216C404.039 41.1573 403.453 41.0987 403.277 41.04C403.101 40.9227 403.013 40.6587 403.013 40.248C403.013 38.664 403.247 37.872 403.717 37.872C404.127 37.872 406.474 37.9307 410.757 38.048C415.039 38.1653 417.533 38.224 418.237 38.224C419.469 38.224 421.61 38.1653 424.661 38.048C427.77 37.9307 429.442 37.872 429.677 37.872C430.146 37.872 430.381 38.752 430.381 40.512C430.322 40.9227 429.941 41.1573 429.237 41.216C426.597 41.392 424.837 41.8027 423.957 42.448C422.549 43.504 421.698 45.0587 421.405 47.112C421.17 48.7547 421.053 53.0667 421.053 60.048C421.053 74.8907 421.141 84.1307 421.317 87.768C421.493 91.4053 422.285 93.84 423.693 95.072C424.69 95.8933 426.655 96.4507 429.589 96.744C430.117 96.8027 430.41 97.0667 430.469 97.536C430.469 98.7093 430.41 99.4133 430.293 99.648C430.234 99.8827 429.999 100 429.589 100C429.119 100 427.095 99.9707 423.517 99.912C419.938 99.7947 417.797 99.736 417.093 99.736C414.042 99.7947 409.525 99.8827 403.541 100C403.071 100 402.837 99.1787 402.837 97.536C402.895 97.008 403.218 96.7147 403.805 96.656C406.797 96.48 408.879 95.8933 410.053 94.896C411.285 93.84 411.989 91.7867 412.165 88.736C412.341 85.6267 412.429 78.88 412.429 68.496C412.429 54.6507 412.135 46.848 411.549 45.088ZM447.014 48.96L445.342 46.672V83.72C445.342 88.4133 445.694 91.4933 446.398 92.96C447.454 95.3067 449.918 96.5973 453.79 96.832C454.318 96.8907 454.582 97.1547 454.582 97.624C454.582 99.208 454.318 100 453.79 100H453.702C452.411 100 450.534 99.9707 448.07 99.912C445.664 99.7947 443.435 99.736 441.382 99.736C439.622 99.736 436.894 99.824 433.198 100C432.67 100 432.376 99.7653 432.318 99.296C432.318 98.1813 432.347 97.5067 432.406 97.272C432.523 96.9787 432.787 96.8027 433.198 96.744C437.011 96.216 439.387 95.0427 440.326 93.224C441.088 91.64 441.47 87.7973 441.47 81.696V44.296C439.592 42.1253 436.864 41.04 433.286 41.04C432.699 41.04 432.406 40.7467 432.406 40.16C432.406 38.6347 432.64 37.872 433.11 37.872H447.982C448.686 37.872 449.243 38.048 449.654 38.4C450.064 38.6933 450.856 39.5733 452.03 41.04C454.787 44.5013 457.368 47.8453 459.774 51.072C464.702 57.408 470.568 64.976 477.374 73.776C479.427 76.5333 482.272 80.3173 485.91 85.128L485.822 79.408C485.822 77.9413 485.88 73.3947 485.998 65.768C486.174 57.7307 486.262 53.096 486.262 51.864C486.262 47.9333 485.734 45.176 484.678 43.592C483.622 42.008 481.422 41.128 478.078 40.952C477.374 40.8933 477.022 40.6293 477.022 40.16C477.022 39.0453 477.051 38.4 477.11 38.224C477.168 37.9893 477.403 37.872 477.814 37.872C483.446 37.9893 486.878 38.048 488.11 38.048C489.283 38.048 491.014 38.0187 493.302 37.96C495.648 37.9013 497.379 37.872 498.494 37.872C499.022 37.872 499.286 38.1947 499.286 38.84C499.286 39.8373 499.227 40.4533 499.11 40.688C499.051 40.9227 498.758 41.0693 498.23 41.128C495.824 41.3627 494.182 41.7147 493.302 42.184C491.894 42.888 490.984 44.296 490.574 46.408C489.87 49.8107 489.518 62.336 489.518 83.984C489.518 88.3253 489.606 92.08 489.782 95.248C489.958 98.416 490.046 99.8533 490.046 99.56C490.046 100.909 489.488 101.584 488.374 101.584C487.435 101.584 486.643 101.085 485.998 100.088C483.768 96.568 480.483 92.0213 476.142 86.448L454.758 59.08C451.179 54.504 448.598 51.1307 447.014 48.96ZM518.776 45.792C518.248 47.6107 518.043 53.9467 518.16 64.8H551.776C551.776 56.4693 551.747 51.424 551.688 49.664C551.571 46.0853 550.72 43.7093 549.136 42.536C548.021 41.656 545.997 41.1867 543.064 41.128C542.477 41.128 542.155 40.864 542.096 40.336C542.096 39.1627 542.125 38.4587 542.184 38.224C542.243 37.9893 542.477 37.872 542.888 37.872C543.533 37.872 545.88 37.9013 549.928 37.96C554.035 38.0187 556.469 38.048 557.232 38.048C557.76 38.048 559.637 38.0187 562.864 37.96C566.091 37.9013 568.027 37.872 568.672 37.872C569.2 37.872 569.493 38.136 569.552 38.664C569.552 39.7787 569.493 40.4533 569.376 40.688C569.317 40.9227 569.053 41.0693 568.584 41.128C566.003 41.4213 564.389 41.6853 563.744 41.92C563.099 42.096 562.512 42.5947 561.984 43.416C560.987 44.9413 560.4 49.136 560.224 56C560.283 53.4187 560.312 57.76 560.312 69.024C560.312 79.8773 560.4 86.5653 560.576 89.088C560.811 91.8453 561.397 93.752 562.336 94.808C563.333 95.8053 565.475 96.4507 568.76 96.744C569.171 96.8027 569.405 96.9493 569.464 97.184C569.581 97.4187 569.64 98.0933 569.64 99.208C569.581 99.736 569.053 100 568.056 100C567.528 100 565.651 99.9707 562.424 99.912C559.197 99.7947 557.291 99.736 556.704 99.736C556.059 99.736 553.829 99.7947 550.016 99.912C546.203 99.9707 543.915 100 543.152 100C542.624 100 542.331 99.7067 542.272 99.12C542.272 98.0053 542.301 97.3307 542.36 97.096C542.477 96.8027 542.741 96.656 543.152 96.656C545.675 96.5387 547.523 96.128 548.696 95.424C550.104 94.544 550.984 93.0773 551.336 91.024C551.629 89.3227 551.776 81.872 551.776 68.672H518.072C518.072 77.648 518.131 83.7787 518.248 87.064C518.365 90.7013 519.069 93.1947 520.36 94.544C521.475 95.776 523.645 96.5093 526.872 96.744C527.283 96.8027 527.517 96.9493 527.576 97.184C527.693 97.4187 527.752 98.0933 527.752 99.208C527.693 99.7947 527.195 100.059 526.256 100C522.56 99.824 518.307 99.736 513.496 99.736C512.675 99.736 510.387 99.7947 506.632 99.912C502.936 99.9707 501.088 100 501.088 100C500.56 100 500.296 99.7067 500.296 99.12C500.296 97.5947 500.56 96.8027 501.088 96.744C505.312 96.4507 507.864 95.1893 508.744 92.96C509.331 91.4347 509.624 84.4827 509.624 72.104C509.624 55.9707 509.419 47.0827 509.008 45.44C508.597 43.7387 507.688 42.5947 506.28 42.008C505.283 41.5387 503.64 41.2453 501.352 41.128C500.707 41.0693 500.355 40.7467 500.296 40.16C500.296 38.6347 500.531 37.872 501 37.872C501.763 37.872 504.109 37.9307 508.04 38.048C511.971 38.1067 514.288 38.136 514.992 38.136C515.637 38.136 517.603 38.1067 520.888 38.048C524.173 37.9307 526.109 37.872 526.696 37.872C527.165 37.872 527.429 37.9893 527.488 38.224C527.605 38.4587 527.664 39.1333 527.664 40.248C527.664 40.776 527.253 41.0693 526.432 41.128C524.32 41.2453 522.765 41.5387 521.768 42.008C520.301 42.712 519.304 43.9733 518.776 45.792Z" fill="url(#paint0_linear_662_57)"/>
</g>
<g filter="url(#filter1_d_662_57)">
<path d="M213.76 146.872L215.432 146.96C216.547 147.019 219.245 147.048 223.528 147.048C224.173 147.048 226.549 147.019 230.656 146.96C234.821 146.843 237.285 146.784 238.048 146.784C246.731 146.784 253.067 148.339 257.056 151.448C260.752 154.323 262.6 158.429 262.6 163.768C262.6 169.107 260.84 173.243 257.32 176.176C255.267 177.877 252.685 178.992 249.576 179.52C245.939 180.165 239.691 180.429 230.832 180.312L230.92 192.104C230.92 193.336 230.949 194.832 231.008 196.592C231.125 200.229 231.859 202.635 233.208 203.808C234.147 204.571 236.141 205.157 239.192 205.568C240.776 205.803 241.568 206.155 241.568 206.624C241.568 208.208 241.333 209 240.864 209C240.101 209 237.608 208.941 233.384 208.824C230.275 208.765 227.752 208.736 225.816 208.736C224.232 208.736 222.208 208.765 219.744 208.824C216.517 208.941 214.523 209 213.76 209C213.232 209 212.968 208.179 212.968 206.536C212.968 206.008 213.261 205.744 213.848 205.744C217.133 205.451 219.216 204.893 220.096 204.072C221.328 202.84 222.003 200.053 222.12 195.712C222.237 190.373 222.296 182.688 222.296 172.656C222.296 166.261 222.208 161.04 222.032 156.992C221.915 154.352 221.211 152.563 219.92 151.624C218.864 150.861 216.84 150.363 213.848 150.128C213.379 150.069 213.115 149.835 213.056 149.424C213.056 147.723 213.291 146.872 213.76 146.872ZM230.832 149.6V177.496C231.829 177.555 233.325 177.584 235.32 177.584C240.365 177.584 244.208 176.851 246.848 175.384C250.72 173.213 252.656 169.283 252.656 163.592C252.656 157.549 250.456 153.443 246.056 151.272C243.592 150.099 240.013 149.512 235.32 149.512C234.851 149.512 234.117 149.512 233.12 149.512C232.123 149.571 231.36 149.6 230.832 149.6ZM282.753 154.792C282.225 156.611 282.019 162.947 282.137 173.8H315.753C315.753 165.469 315.723 160.424 315.665 158.664C315.547 155.085 314.697 152.709 313.113 151.536C311.998 150.656 309.974 150.187 307.041 150.128C306.454 150.128 306.131 149.864 306.073 149.336C306.073 148.163 306.102 147.459 306.161 147.224C306.219 146.989 306.454 146.872 306.865 146.872C307.51 146.872 309.857 146.901 313.905 146.96C318.011 147.019 320.446 147.048 321.209 147.048C321.737 147.048 323.614 147.019 326.841 146.96C330.067 146.901 332.003 146.872 332.649 146.872C333.177 146.872 333.47 147.136 333.529 147.664C333.529 148.779 333.47 149.453 333.353 149.688C333.294 149.923 333.03 150.069 332.561 150.128C329.979 150.421 328.366 150.685 327.721 150.92C327.075 151.096 326.489 151.595 325.961 152.416C324.963 153.941 324.377 158.136 324.201 165C324.259 162.419 324.289 166.76 324.289 178.024C324.289 188.877 324.377 195.565 324.553 198.088C324.787 200.845 325.374 202.752 326.313 203.808C327.31 204.805 329.451 205.451 332.737 205.744C333.147 205.803 333.382 205.949 333.441 206.184C333.558 206.419 333.617 207.093 333.617 208.208C333.558 208.736 333.03 209 332.033 209C331.505 209 329.627 208.971 326.401 208.912C323.174 208.795 321.267 208.736 320.681 208.736C320.035 208.736 317.806 208.795 313.993 208.912C310.179 208.971 307.891 209 307.129 209C306.601 209 306.307 208.707 306.249 208.12C306.249 207.005 306.278 206.331 306.337 206.096C306.454 205.803 306.718 205.656 307.129 205.656C309.651 205.539 311.499 205.128 312.673 204.424C314.081 203.544 314.961 202.077 315.313 200.024C315.606 198.323 315.753 190.872 315.753 177.672H282.049C282.049 186.648 282.107 192.779 282.225 196.064C282.342 199.701 283.046 202.195 284.337 203.544C285.451 204.776 287.622 205.509 290.849 205.744C291.259 205.803 291.494 205.949 291.553 206.184C291.67 206.419 291.729 207.093 291.729 208.208C291.67 208.795 291.171 209.059 290.233 209C286.537 208.824 282.283 208.736 277.473 208.736C276.651 208.736 274.363 208.795 270.609 208.912C266.913 208.971 265.065 209 265.065 209C264.537 209 264.273 208.707 264.273 208.12C264.273 206.595 264.537 205.803 265.065 205.744C269.289 205.451 271.841 204.189 272.721 201.96C273.307 200.435 273.601 193.483 273.601 181.104C273.601 164.971 273.395 156.083 272.985 154.44C272.574 152.739 271.665 151.595 270.257 151.008C269.259 150.539 267.617 150.245 265.329 150.128C264.683 150.069 264.331 149.747 264.273 149.16C264.273 147.635 264.507 146.872 264.977 146.872C265.739 146.872 268.086 146.931 272.017 147.048C275.947 147.107 278.265 147.136 278.969 147.136C279.614 147.136 281.579 147.107 284.865 147.048C288.15 146.931 290.086 146.872 290.673 146.872C291.142 146.872 291.406 146.989 291.465 147.224C291.582 147.459 291.641 148.133 291.641 149.248C291.641 149.776 291.23 150.069 290.409 150.128C288.297 150.245 286.742 150.539 285.745 151.008C284.278 151.712 283.281 152.973 282.753 154.792ZM370.535 145.376C379.452 145.376 386.991 148.192 393.151 153.824C399.897 159.984 403.271 168.139 403.271 178.288C403.271 187.733 400.132 195.477 393.855 201.52C387.636 207.504 379.775 210.496 370.271 210.496C361.647 210.496 354.225 207.768 348.007 202.312C341.025 196.152 337.535 187.909 337.535 177.584C337.535 168.256 340.673 160.571 346.951 154.528C353.287 148.427 361.148 145.376 370.535 145.376ZM369.479 148.456C362.615 148.867 357.276 152.24 353.463 158.576C350.177 163.973 348.535 170.339 348.535 177.672C348.535 187.293 350.969 194.832 355.839 200.288C359.945 204.923 364.785 207.24 370.359 207.24C377.34 207.24 382.884 204.072 386.991 197.736C390.628 192.28 392.447 185.885 392.447 178.552C392.447 168.989 389.895 161.245 384.791 155.32C380.567 150.392 375.463 148.104 369.479 148.456ZM364.551 143.264C364.257 143.733 364.052 143.968 363.935 143.968C363.583 143.968 363.172 143.821 362.703 143.528C362.233 143.176 361.999 142.824 361.999 142.472C361.999 141.533 362.761 139.421 364.287 136.136C365.636 133.144 366.721 131.032 367.543 129.8C368.364 128.509 369.273 127.864 370.271 127.864C371.327 127.864 372.5 129.008 373.791 131.296C377.428 137.749 379.247 141.475 379.247 142.472C379.247 142.824 379.012 143.176 378.543 143.528C378.073 143.821 377.663 143.968 377.311 143.968C377.017 143.968 376.577 143.352 375.991 142.12C373.409 136.605 371.561 133.848 370.447 133.848C369.332 133.848 367.367 136.987 364.551 143.264ZM363.231 132.616C363.348 133.261 363.025 133.672 362.263 133.848C361.911 133.907 361.207 133.467 360.151 132.528L351.967 125.224C350.852 124.227 350.236 123.376 350.119 122.672C350.001 121.968 350.236 121.264 350.823 120.56C351.409 119.856 352.055 119.475 352.759 119.416C353.639 119.299 354.46 119.651 355.223 120.472C355.692 121 356.953 122.76 359.007 125.752C361.764 129.741 363.172 132.029 363.231 132.616ZM421.709 157.96L420.037 155.672V192.72C420.037 197.413 420.389 200.493 421.093 201.96C422.149 204.307 424.613 205.597 428.485 205.832C429.013 205.891 429.277 206.155 429.277 206.624C429.277 208.208 429.013 209 428.485 209H428.397C427.106 209 425.229 208.971 422.765 208.912C420.359 208.795 418.13 208.736 416.077 208.736C414.317 208.736 411.589 208.824 407.893 209C407.365 209 407.071 208.765 407.013 208.296C407.013 207.181 407.042 206.507 407.101 206.272C407.218 205.979 407.482 205.803 407.893 205.744C411.706 205.216 414.082 204.043 415.021 202.224C415.783 200.64 416.165 196.797 416.165 190.696V153.296C414.287 151.125 411.559 150.04 407.981 150.04C407.394 150.04 407.101 149.747 407.101 149.16C407.101 147.635 407.335 146.872 407.805 146.872H422.677C423.381 146.872 423.938 147.048 424.349 147.4C424.759 147.693 425.551 148.573 426.725 150.04C429.482 153.501 432.063 156.845 434.469 160.072C439.397 166.408 445.263 173.976 452.069 182.776C454.122 185.533 456.967 189.317 460.605 194.128L460.517 188.408C460.517 186.941 460.575 182.395 460.693 174.768C460.869 166.731 460.957 162.096 460.957 160.864C460.957 156.933 460.429 154.176 459.373 152.592C458.317 151.008 456.117 150.128 452.773 149.952C452.069 149.893 451.717 149.629 451.717 149.16C451.717 148.045 451.746 147.4 451.805 147.224C451.863 146.989 452.098 146.872 452.509 146.872C458.141 146.989 461.573 147.048 462.805 147.048C463.978 147.048 465.709 147.019 467.997 146.96C470.343 146.901 472.074 146.872 473.189 146.872C473.717 146.872 473.981 147.195 473.981 147.84C473.981 148.837 473.922 149.453 473.805 149.688C473.746 149.923 473.453 150.069 472.925 150.128C470.519 150.363 468.877 150.715 467.997 151.184C466.589 151.888 465.679 153.296 465.269 155.408C464.565 158.811 464.213 171.336 464.213 192.984C464.213 197.325 464.301 201.08 464.477 204.248C464.653 207.416 464.741 208.853 464.741 208.56C464.741 209.909 464.183 210.584 463.069 210.584C462.13 210.584 461.338 210.085 460.693 209.088C458.463 205.568 455.178 201.021 450.837 195.448L429.453 168.08C425.874 163.504 423.293 160.131 421.709 157.96ZM517.362 154.792C516.834 156.611 516.629 162.947 516.746 173.8H550.362C550.362 165.469 550.333 160.424 550.274 158.664C550.157 155.085 549.306 152.709 547.722 151.536C546.607 150.656 544.583 150.187 541.65 150.128C541.063 150.128 540.741 149.864 540.682 149.336C540.682 148.163 540.711 147.459 540.77 147.224C540.829 146.989 541.063 146.872 541.474 146.872C542.119 146.872 544.466 146.901 548.514 146.96C552.621 147.019 555.055 147.048 555.818 147.048C556.346 147.048 558.223 147.019 561.45 146.96C564.677 146.901 566.613 146.872 567.258 146.872C567.786 146.872 568.079 147.136 568.138 147.664C568.138 148.779 568.079 149.453 567.962 149.688C567.903 149.923 567.639 150.069 567.17 150.128C564.589 150.421 562.975 150.685 562.33 150.92C561.685 151.096 561.098 151.595 560.57 152.416C559.573 153.941 558.986 158.136 558.81 165C558.869 162.419 558.898 166.76 558.898 178.024C558.898 188.877 558.986 195.565 559.162 198.088C559.397 200.845 559.983 202.752 560.922 203.808C561.919 204.805 564.061 205.451 567.346 205.744C567.757 205.803 567.991 205.949 568.05 206.184C568.167 206.419 568.226 207.093 568.226 208.208C568.167 208.736 567.639 209 566.642 209C566.114 209 564.237 208.971 561.01 208.912C557.783 208.795 555.877 208.736 555.29 208.736C554.645 208.736 552.415 208.795 548.602 208.912C544.789 208.971 542.501 209 541.738 209C541.21 209 540.917 208.707 540.858 208.12C540.858 207.005 540.887 206.331 540.946 206.096C541.063 205.803 541.327 205.656 541.738 205.656C544.261 205.539 546.109 205.128 547.282 204.424C548.69 203.544 549.57 202.077 549.922 200.024C550.215 198.323 550.362 190.872 550.362 177.672H516.658C516.658 186.648 516.717 192.779 516.834 196.064C516.951 199.701 517.655 202.195 518.946 203.544C520.061 204.776 522.231 205.509 525.458 205.744C525.869 205.803 526.103 205.949 526.162 206.184C526.279 206.419 526.338 207.093 526.338 208.208C526.279 208.795 525.781 209.059 524.842 209C521.146 208.824 516.893 208.736 512.082 208.736C511.261 208.736 508.973 208.795 505.218 208.912C501.522 208.971 499.674 209 499.674 209C499.146 209 498.882 208.707 498.882 208.12C498.882 206.595 499.146 205.803 499.674 205.744C503.898 205.451 506.45 204.189 507.33 201.96C507.917 200.435 508.21 193.483 508.21 181.104C508.21 164.971 508.005 156.083 507.594 154.44C507.183 152.739 506.274 151.595 504.866 151.008C503.869 150.539 502.226 150.245 499.938 150.128C499.293 150.069 498.941 149.747 498.882 149.16C498.882 147.635 499.117 146.872 499.586 146.872C500.349 146.872 502.695 146.931 506.626 147.048C510.557 147.107 512.874 147.136 513.578 147.136C514.223 147.136 516.189 147.107 519.474 147.048C522.759 146.931 524.695 146.872 525.282 146.872C525.751 146.872 526.015 146.989 526.074 147.224C526.191 147.459 526.25 148.133 526.25 149.248C526.25 149.776 525.839 150.069 525.018 150.128C522.906 150.245 521.351 150.539 520.354 151.008C518.887 151.712 517.89 152.973 517.362 154.792ZM605.144 145.376C614.003 145.376 621.541 148.192 627.76 153.824C634.507 160.043 637.88 168.197 637.88 178.288C637.88 187.675 634.741 195.389 628.464 201.432C622.187 207.475 614.325 210.496 604.88 210.496C596.256 210.496 588.835 207.768 582.616 202.312C575.635 196.152 572.144 187.909 572.144 177.584C572.144 168.021 575.459 160.189 582.088 154.088C588.424 148.28 596.109 145.376 605.144 145.376ZM604.088 148.456C598.045 148.808 593.029 151.683 589.04 157.08C585.109 162.477 583.144 169.341 583.144 177.672C583.144 187.293 585.579 194.832 590.448 200.288C594.555 204.923 599.395 207.24 604.968 207.24C611.363 207.24 616.643 204.453 620.808 198.88C624.973 193.307 627.056 186.531 627.056 178.552C627.056 168.989 624.504 161.245 619.4 155.32C615.176 150.392 610.072 148.104 604.088 148.456ZM679.11 208.296V206.448C679.169 205.92 679.492 205.656 680.078 205.656C682.014 205.656 683.364 205.539 684.126 205.304C685.534 204.835 686.238 203.867 686.238 202.4C686.238 201.637 686.062 200.728 685.71 199.672C684.537 196.445 682.894 192.016 680.782 186.384C673.566 186.208 669.958 186.12 669.958 186.12C667.025 186.12 663.564 186.208 659.574 186.384L656.23 195.184C654.94 198.645 654.294 200.875 654.294 201.872C654.294 203.984 655.966 205.216 659.31 205.568C660.366 205.685 660.894 206.008 660.894 206.536C660.894 208.179 660.63 209 660.102 209C656.993 208.941 653.913 208.883 650.862 208.824C648.164 208.765 645.054 208.824 641.534 209C641.124 209 640.86 208.883 640.742 208.648C640.684 208.413 640.654 207.709 640.654 206.536C640.654 206.008 640.918 205.715 641.446 205.656C644.732 205.187 646.932 204.248 648.046 202.84C649.161 201.432 651.273 196.885 654.382 189.2L671.102 147.664C671.454 146.784 671.718 146.256 671.894 146.08C672.129 145.904 672.598 145.816 673.302 145.816C674.006 145.816 674.593 146.432 675.062 147.664L693.454 195.8C694.217 197.736 695.185 200.112 696.358 202.928C696.886 203.867 697.414 204.483 697.942 204.776C698.764 205.245 700.26 205.568 702.43 205.744C702.958 205.744 703.222 206.037 703.222 206.624C703.222 207.739 703.193 208.413 703.134 208.648C703.076 208.883 702.841 209 702.43 209C697.854 208.883 695.214 208.824 694.51 208.824C692.222 208.824 687.324 208.883 679.814 209C679.345 209 679.11 208.765 679.11 208.296ZM679.286 182.424L670.486 159.192L661.158 182.424C663.036 182.659 666.057 182.776 670.222 182.776C672.276 182.776 675.297 182.659 679.286 182.424Z" fill="url(#paint1_linear_662_57)"/>
</g>
<path d="M4.01953 144.844L8.50391 143.066V150.34H14.4375L14.3281 151.57L14.4375 152.473H8.50391V166.582L8.39453 168.496C8.39453 171.249 8.78646 173.172 9.57031 174.266C10.2448 175.195 11.2656 175.66 12.6328 175.66C13.125 175.66 13.599 175.605 14.0547 175.496C14.5286 175.387 14.9206 175.286 15.2305 175.195V176.562C14.4831 176.854 13.6719 177.109 12.7969 177.328C11.9401 177.565 11.1836 177.684 10.5273 177.684C8.32161 177.684 6.70833 177.137 5.6875 176.043C4.5026 174.785 3.91016 172.68 3.91016 169.727L4.01953 168.824V152.473H0.546875C0.619792 152.254 0.65625 151.917 0.65625 151.461C0.65625 150.932 0.619792 150.559 0.546875 150.34H4.01953V144.844ZM20.5898 177.219V150.34C21.1549 150.413 21.5469 150.467 21.7656 150.504C21.9844 150.54 22.3398 150.559 22.832 150.559L25.0742 150.34V155.945L25.293 155.262C26.332 153.694 27.3984 152.464 28.4922 151.57C29.7865 150.531 31.0716 150.012 32.3477 150.012C32.9857 150.012 33.5872 150.121 34.1523 150.34L33.3594 155.043C32.4661 154.751 31.5729 154.451 30.6797 154.141C29.1849 154.141 27.9909 154.596 27.0977 155.508C26.2227 156.547 25.6667 157.549 25.4297 158.516C25.1927 159.482 25.0742 160.867 25.0742 162.672V177.219L22.832 177C22.4128 177 22.0938 177.009 21.875 177.027C21.6562 177.046 21.2279 177.109 20.5898 177.219ZM60.1289 171.395L60.0195 174.32C58.5612 175.359 57.0208 176.18 55.3984 176.781C53.776 177.383 52.099 177.684 50.3672 177.684C46.4115 177.684 43.2214 176.453 40.7969 173.992C38.3724 171.513 37.1602 168.113 37.1602 163.793C37.1602 159.746 38.2448 156.474 40.4141 153.977C42.7292 151.333 45.9375 150.012 50.0391 150.012C53.1745 150.012 55.7904 151.042 57.8867 153.102C60.2018 155.362 61.3594 158.516 61.3594 162.562V163.793C60.0469 163.793 57.8685 163.757 54.8242 163.684C51.7799 163.592 50.1849 163.547 50.0391 163.547H42.082L41.9727 164.668C41.9727 167.658 42.8385 170.164 44.5703 172.188C46.3203 174.193 48.7448 175.195 51.8438 175.195C53.5208 175.195 55.1797 174.749 56.8203 173.855C57.8594 173.309 58.9622 172.488 60.1289 171.395ZM42.082 161.551H56.9844C56.9844 158.707 56.5195 156.465 55.5898 154.824C54.4232 152.801 52.5729 151.789 50.0391 151.789C47.5781 151.789 45.6003 152.819 44.1055 154.879C42.7565 156.738 42.082 158.962 42.082 161.551ZM42.7109 147.77H40.7969L47.7422 138.363H50.7773L57.7227 147.77H55.8086L49.3008 141.836L42.7109 147.77ZM67.7305 177.219V150.34C68.2956 150.413 68.6875 150.467 68.9062 150.504C69.125 150.54 69.4805 150.559 69.9727 150.559L72.2148 150.34V155.508C73.181 153.74 74.4297 152.382 75.9609 151.434C77.4922 150.486 79.2331 150.012 81.1836 150.012C84.3919 150.012 86.6979 150.905 88.1016 152.691C89.5234 154.478 90.2344 157.24 90.2344 160.977V177.219L87.9922 177C87.5911 177 87.2721 177.009 87.0352 177.027C86.8164 177.046 86.388 177.109 85.75 177.219V162.207C85.75 159.217 85.3763 157.039 84.6289 155.672C83.6628 153.831 81.9492 152.91 79.4883 152.91C76.7357 152.91 74.7943 153.922 73.6641 155.945C72.6979 157.659 72.2148 160.384 72.2148 164.121V177.219L69.9727 177C69.5534 177 69.2344 177.009 69.0156 177.027C68.7969 177.046 68.3685 177.109 67.7305 177.219ZM138.551 143.859V177.219L136.309 177C135.889 177 135.57 177.009 135.352 177.027C135.133 177.046 134.704 177.109 134.066 177.219V171.723C131.678 175.697 128.47 177.684 124.441 177.684C121.069 177.684 118.398 176.562 116.43 174.32C114.297 171.932 113.23 168.496 113.23 164.012C113.23 160.02 114.324 156.693 116.512 154.031C118.699 151.352 121.598 150.012 125.207 150.012C127.158 150.012 128.844 150.477 130.266 151.406C131.706 152.336 132.973 153.703 134.066 155.508V143.859H126.902V141.371H134.066V135.109L136.309 135.219L138.551 135.109V141.371H140.902V143.859H138.551ZM134.066 163C134.066 160.193 133.52 157.841 132.426 155.945C131.059 153.557 129.062 152.363 126.438 152.363C123.193 152.363 120.914 153.703 119.602 156.383C118.635 158.37 118.152 161.177 118.152 164.805C118.152 167.63 118.699 170.018 119.793 171.969C121.124 174.357 123.12 175.551 125.781 175.551C128.68 175.551 130.858 174.111 132.316 171.23C133.483 168.952 134.066 166.208 134.066 163ZM166.141 159.418V172.406L166.031 173.199C166.031 173.947 166.122 174.493 166.305 174.84C166.487 175.168 166.879 175.332 167.48 175.332L169.258 174.977V176.207C168.784 176.48 168.228 176.672 167.59 176.781L165.566 177C164.491 177 163.625 176.745 162.969 176.234C162.312 175.706 161.911 174.803 161.766 173.527L161.328 174.102C158.922 176.49 156.151 177.684 153.016 177.684C150.938 177.684 149.169 177.036 147.711 175.742C146.253 174.448 145.523 172.78 145.523 170.738C145.523 168.533 146.161 166.828 147.438 165.625C148.732 164.404 151.566 163.419 155.941 162.672C157.837 162.362 159.086 162.116 159.688 161.934C161.146 161.441 161.875 160.457 161.875 158.98C161.875 156.884 161.31 155.262 160.18 154.113C159.068 152.947 157.427 152.363 155.258 152.363C153.435 152.363 151.867 152.846 150.555 153.812C149.516 154.56 148.887 155.38 148.668 156.273H147.984V153.156C149.443 152.135 150.901 151.361 152.359 150.832C153.818 150.285 155.385 150.012 157.062 150.012C163.115 150.012 166.141 153.147 166.141 159.418ZM161.656 171.395V163.219L159.633 163.547C156.315 164.221 154.264 164.75 153.48 165.133C151.238 166.135 150.117 167.74 150.117 169.945C150.117 171.695 150.591 173.008 151.539 173.883C152.487 174.758 153.845 175.195 155.613 175.195C156.397 175.195 157.208 174.995 158.047 174.594C158.885 174.174 159.56 173.673 160.07 173.09C160.38 172.853 160.717 172.552 161.082 172.188C161.465 171.805 161.656 171.54 161.656 171.395ZM149.734 147.77H147.82L154.766 138.363H157.801L164.719 147.77H162.832L156.324 141.836L149.734 147.77ZM172.457 135L163.625 140.496H161.711L168.766 133.441L170.105 132.102C170.671 131.719 171.236 131.345 171.801 130.98H172.129C173.059 130.98 173.651 131.391 173.906 132.211L174.016 133.086C174.016 133.396 173.943 133.624 173.797 133.77C173.724 133.988 173.514 134.225 173.168 134.48C172.84 134.717 172.603 134.891 172.457 135ZM175.082 144.844L179.566 143.066V150.34H185.5L185.391 151.57L185.5 152.473H179.566V166.582L179.457 168.496C179.457 171.249 179.849 173.172 180.633 174.266C181.307 175.195 182.328 175.66 183.695 175.66C184.188 175.66 184.661 175.605 185.117 175.496C185.591 175.387 185.983 175.286 186.293 175.195V176.562C185.546 176.854 184.734 177.109 183.859 177.328C183.003 177.565 182.246 177.684 181.59 177.684C179.384 177.684 177.771 177.137 176.75 176.043C175.565 174.785 174.973 172.68 174.973 169.727L175.082 168.824V152.473H171.609C171.682 152.254 171.719 151.917 171.719 151.461C171.719 150.932 171.682 150.559 171.609 150.34H175.082V144.844Z" fill="url(#paint2_linear_662_57)"/>
<defs>
<filter id="filter0_d_662_57" x="91.144" y="8.224" width="486.496" height="101.36" filterUnits="userSpaceOnUse" color-interpolation-filters="sRGB">
<feFlood flood-opacity="0" result="BackgroundImageFix"/>
<feColorMatrix in="SourceAlpha" type="matrix" values="0 0 0 0 0 0 0 0 0 0 0 0 0 0 0 0 0 0 127 0" result="hardAlpha"/>
<feOffset/>
<feGaussianBlur stdDeviation="4"/>
<feComposite in2="hardAlpha" operator="out"/>
<feColorMatrix type="matrix" values="0 0 0 0 0 0 0 0 0 0.933333 0 0 0 0 1 0 0 0 0.25 0"/>
<feBlend mode="normal" in2="BackgroundImageFix" result="effect1_dropShadow_662_57"/>
<feBlend mode="normal" in="SourceGraphic" in2="effect1_dropShadow_662_57" result="shape"/>
</filter>
<filter id="filter1_d_662_57" x="204.968" y="111.24" width="506.254" height="107.344" filterUnits="userSpaceOnUse" color-interpolation-filters="sRGB">
<feFlood flood-opacity="0" result="BackgroundImageFix"/>
<feColorMatrix in="SourceAlpha" type="matrix" values="0 0 0 0 0 0 0 0 0 0 0 0 0 0 0 0 0 0 127 0" result="hardAlpha"/>
<feOffset/>
<feGaussianBlur stdDeviation="4"/>
<feComposite in2="hardAlpha" operator="out"/>
<feColorMatrix type="matrix" values="0 0 0 0 0 0 0 0 0 0.933333 0 0 0 0 1 0 0 0 0.25 0"/>
<feBlend mode="normal" in2="BackgroundImageFix" result="effect1_dropShadow_662_57"/>
<feBlend mode="normal" in="SourceGraphic" in2="effect1_dropShadow_662_57" result="shape"/>
</filter>
<linearGradient id="paint0_linear_662_57" x1="98" y1="62.5" x2="571" y2="62.5" gradientUnits="userSpaceOnUse">
<stop stop-color="#00CEE0"/>
<stop offset="0.524038" stop-color="#00E0D1"/>
<stop offset="1" stop-color="#00CEE0"/>
</linearGradient>
<linearGradient id="paint1_linear_662_57" x1="212" y1="171.5" x2="704" y2="171.5" gradientUnits="userSpaceOnUse">
<stop stop-color="#00CEE0"/>
<stop offset="0.524038" stop-color="#00E0D1"/>
<stop offset="1" stop-color="#00CEE0"/>
</linearGradient>
<linearGradient id="paint2_linear_662_57" x1="0" y1="150.5" x2="188" y2="150.5" gradientUnits="userSpaceOnUse">
<stop stop-color="#067CAD"/>
<stop offset="1" stop-color="#00E0D1"/>
</linearGradient>
</defs>
</svg>
